<?xml version="1.0" encoding="UTF-8"?>
<svg version="1.1" xmlns="http://www.w3.org/2000/svg" width="361" height="361">
<path d="M0 0 C0.96075439 0.465271 0.96075439 0.465271 1.94091797 0.93994141 C43.54694115 21.17058934 75.44000711 58.70705744 91 102 C106.68977104 148.44802269 103.96291681 198.99244234 82.3125 243.125 C60.15475981 286.73793865 21.47318061 319.77064507 -25 335 C-35.79887434 338.21491618 -46.80071302 340.70892938 -58 342 C-58.92039063 342.11085938 -59.84078125 342.22171875 -60.7890625 342.3359375 C-108.19965967 347.16842261 -155.76558981 333.17335288 -192.94189453 303.44726562 C-228.98411664 274.00770527 -252.49821596 233.13679453 -259 187 C-259.09571289 186.35264893 -259.19142578 185.70529785 -259.29003906 185.03833008 C-260.26132103 177.61881502 -260.2435957 170.15935946 -260.25 162.6875 C-260.25067474 161.97824371 -260.25134949 161.26898743 -260.25204468 160.53823853 C-260.20608706 130.02710337 -252.29166172 101.84394535 -238 75 C-237.68305176 74.39414063 -237.36610352 73.78828125 -237.03955078 73.1640625 C-229.92060709 59.64212902 -220.48932166 48.06146648 -210 37 C-209.55575684 36.52852539 -209.11151367 36.05705078 -208.65380859 35.57128906 C-197.47074356 23.77823867 -184.94365994 14.31348168 -171 6 C-170.38237793 5.6302002 -169.76475586 5.26040039 -169.12841797 4.87939453 C-118.46150383 -24.9208701 -52.29473562 -26.11544184 0 0 Z " fill="#FEFEFE" transform="translate(260,18)"/>
<path d="M0 0 C1.18078125 -0.00773437 2.3615625 -0.01546875 3.578125 -0.0234375 C11.24095174 -0.00655903 18.48813693 0.74006049 26 2.25 C24.66625653 6.31728722 23.1227923 8.36663342 19.85522461 11.09716797 C15.31343915 15.04230511 10.97970322 19.13430958 6.70532227 23.36767578 C5.71212683 24.35043897 5.71212683 24.35043897 4.69886684 25.35305595 C2.56891249 27.46467322 0.44221379 29.57952096 -1.68359375 31.6953125 C-2.42194017 32.4295834 -3.1602866 33.16385429 -3.92100716 33.92037582 C-7.82698933 37.80562712 -11.72977693 41.69405603 -15.63012695 45.58496094 C-19.61988901 49.56366849 -23.6211977 53.53054952 -27.62522793 57.49489021 C-30.73870618 60.58201279 -33.84306459 63.67819018 -36.94517708 66.77672958 C-38.41472983 68.24146762 -39.88760619 69.70288018 -41.36410332 71.16061783 C-61.11354917 90.67456923 -77.2093142 111.51771893 -77.4375 140.4375 C-77.4528479 141.93385986 -77.4528479 141.93385986 -77.46850586 143.46044922 C-77.23552744 163.19681691 -67.39741573 182.12783999 -54 196.25 C-37.35487409 211.2233447 -17.05585229 218.10578167 5.1328125 217.48828125 C9.13131294 217.241909 13.03243009 216.7934422 17 216.25 C11.51001741 222.89895929 5.48887451 228.99781728 -0.56640625 235.125 C-1.11732374 235.68248932 -1.66824123 236.23997864 -2.2358532 236.81436157 C-5.14297479 239.75385141 -8.05400901 242.68941187 -10.9675293 245.62255859 C-13.37422652 248.04718082 -15.77208566 250.48006977 -18.1628418 252.92041016 C-21.06135619 255.87893521 -23.97416088 258.82263406 -26.89796257 261.75616455 C-28.00709561 262.87386766 -29.11107817 263.99670624 -30.20974922 265.12469482 C-31.74146394 266.695119 -33.29083559 268.24575942 -34.84594727 269.79296875 C-35.7227565 270.68008545 -36.59956573 271.56720215 -37.50294495 272.48120117 C-40 274.25 -40 274.25 -42.61509705 274.10131836 C-43.40211502 273.8203833 -44.189133 273.53944824 -45 273.25 C-46.093125 272.86585938 -47.18625 272.48171875 -48.3125 272.0859375 C-60.3403122 267.32068139 -71.2525472 261.64823136 -81.875 254.25 C-82.9276001 253.52079346 -82.9276001 253.52079346 -84.00146484 252.77685547 C-88.81778449 249.34186317 -92.9191883 245.52106957 -97 241.25 C-97.87269531 240.38117188 -98.74539062 239.51234375 -99.64453125 238.6171875 C-113.12219749 225.07246819 -122.48374651 210.7763791 -130 193.25 C-130.495 192.115625 -130.99 190.98125 -131.5 189.8125 C-134.7978305 181.80348308 -136.5243954 173.76244732 -138 165.25 C-138.16991455 164.43426514 -138.3398291 163.61853027 -138.51489258 162.77807617 C-139.93562937 155.7428004 -140.34975615 148.98187924 -140.3125 141.8125 C-140.30758545 140.68086426 -140.3026709 139.54922852 -140.29760742 138.38330078 C-139.83422816 104.65404337 -127.62029512 74.00206779 -106 48.25 C-105.23558594 47.33089844 -104.47117188 46.41179687 -103.68359375 45.46484375 C-83.82512964 22.48018136 -55.3860185 8.17966784 -26 2.25 C-24.65591064 1.97639648 -24.65591064 1.97639648 -23.28466797 1.69726562 C-15.48523476 0.24368199 -7.92133228 -0.05188646 0 0 Z " fill="#010101" transform="translate(180,39.75)"/>
<path d="M0 0 C1.73420981 0.45473373 3.46711102 0.91445949 5.19946289 1.3762207 C6.64718834 1.75941216 6.64718834 1.75941216 8.12416077 2.15034485 C12.43333897 3.42347424 16.40455354 5.22525126 20.4375 7.1875 C21.25734375 7.58259766 22.0771875 7.97769531 22.921875 8.38476562 C34.05860472 13.8654397 43.54419271 20.98279413 53 29 C53.65871094 29.53496094 54.31742187 30.06992188 54.99609375 30.62109375 C59.51873894 34.33792243 63.29510608 38.47510944 67 43 C67.77472656 43.93714844 68.54945313 44.87429687 69.34765625 45.83984375 C82.50263757 62.11521337 92.27988157 81.58985826 97 102 C97.14953125 102.6403418 97.2990625 103.28068359 97.453125 103.94042969 C105.4783079 139.72513533 98.20140362 177.9736185 79 209 C73.81317997 216.98253754 67.53076782 224.1005598 61 231 C60.11828125 231.95777344 59.2365625 232.91554688 58.328125 233.90234375 C39.2421398 254.18284384 12.33779917 267.5536633 -15 272 C-16.17792114 272.25160889 -16.17792114 272.25160889 -17.37963867 272.50830078 C-25.09842108 274.10548572 -32.57177884 274.29918638 -40.4375 274.25 C-42.28698242 274.26160156 -42.28698242 274.26160156 -44.17382812 274.2734375 C-51.97593633 274.25695127 -59.35310441 273.55146721 -67 272 C-64.85780569 267.43827372 -61.77719475 264.57013295 -58.0478363 261.27528381 C-50.06770421 254.22373387 -42.52755437 246.74702757 -34.97265625 239.24609375 C-34.26740751 238.54616869 -33.56215878 237.84624363 -32.83553886 237.12510872 C-29.104378 233.42049942 -25.37678449 229.71233853 -21.65161133 226.00170898 C-18.60092829 222.96434806 -15.54314978 219.93441906 -12.47875977 216.91088867 C-8.74054039 213.22247004 -5.01520093 209.52147536 -1.2982769 205.81160164 C0.10339572 204.41655857 1.50925056 203.02570224 2.91969109 201.63952446 C22.56172486 182.31633682 37.21542873 160.78085319 37.5 132.375 C37.27741145 112.02194491 29.30575444 95.17542786 15.5625 80.375 C14.716875 79.59125 13.87125 78.8075 13 78 C12.42507812 77.40832031 11.85015625 76.81664063 11.2578125 76.20703125 C-2.11974465 63.15760286 -21.57482226 56.79356906 -39.9375 56.875 C-40.80568359 56.87113281 -41.67386719 56.86726563 -42.56835938 56.86328125 C-47.48604607 56.87071539 -52.15215056 57.1689401 -57 58 C-51.50280742 51.30470134 -45.39046848 45.26303509 -39.2578125 39.16015625 C-38.12273594 38.02694801 -36.98788237 36.89351638 -35.85324097 35.75987244 C-32.88649256 32.79691665 -29.91675198 29.83697807 -26.9463501 26.87768555 C-23.9077114 23.84933144 -20.87195091 20.81809501 -17.8359375 17.78710938 C-11.8934174 11.85526911 -5.947729 5.92661739 0 0 Z " fill="#010101" transform="translate(220,46)"/>
</svg>
