<svg width="320" height="320" viewBox="0 0 320 320" fill="none" xmlns="http://www.w3.org/2000/svg">
<circle cx="160" cy="160" r="160" fill="#004DE5"/>
<g clip-path="url(#clip0_2510_13630)">
<path fill-rule="evenodd" clip-rule="evenodd" d="M82.96 209.876V76.616C82.96 72.2092 84.7106 67.9828 87.8267 64.8667C90.9428 61.7506 95.1691 60 99.576 60H220.042C224.449 60 228.675 61.7506 231.791 64.8667C234.907 67.9828 236.658 72.2092 236.658 76.616V209.876C236.656 212.365 236.096 214.822 235.017 217.065C233.939 219.309 232.37 221.281 230.427 222.837L167.598 273.266C165.387 275.036 162.64 276 159.809 276C156.977 276 154.23 275.036 152.02 273.266L89.1909 222.837C87.2479 221.281 85.6792 219.309 84.6007 217.065C83.5222 214.822 82.9615 212.365 82.96 209.876ZM211.729 101.535V134.767C211.729 139.169 209.983 143.39 206.874 146.506C203.764 149.621 199.546 151.375 195.144 151.383C199.551 151.383 203.778 153.134 206.894 156.25C210.01 159.366 211.76 163.592 211.76 167.999V197.96C211.759 200.449 211.198 202.906 210.12 205.149C209.041 207.393 207.472 209.365 205.529 210.92L179.816 231.566C179.511 231.81 179.143 231.964 178.754 232.008C178.365 232.052 177.972 231.986 177.619 231.817C177.267 231.648 176.969 231.382 176.76 231.051C176.552 230.72 176.441 230.337 176.441 229.946V172.153C176.441 168.848 175.128 165.678 172.791 163.341C170.454 161.004 167.284 159.691 163.979 159.691H145.286C144.735 159.691 144.207 159.91 143.817 160.3C143.428 160.689 143.209 161.217 143.209 161.768V229.946C143.21 230.339 143.1 230.724 142.891 231.057C142.682 231.39 142.383 231.657 142.029 231.826C141.674 231.996 141.279 232.062 140.888 232.016C140.498 231.969 140.129 231.813 139.824 231.566L114.11 210.92C112.167 209.365 110.599 207.393 109.52 205.149C108.442 202.906 107.881 200.449 107.879 197.96V101.535C107.879 97.1285 109.63 92.9022 112.746 89.7861C115.862 86.67 120.089 84.9194 124.495 84.9194H195.113C199.52 84.9194 203.746 86.67 206.863 89.7861C209.979 92.9022 211.729 97.1285 211.729 101.535ZM145.265 143.075H163.958C167.263 143.075 170.433 141.762 172.77 139.425C175.107 137.088 176.42 133.918 176.42 130.613V103.612C176.42 103.062 176.201 102.533 175.812 102.144C175.422 101.754 174.894 101.535 174.343 101.535H145.265C144.714 101.535 144.186 101.754 143.797 102.144C143.407 102.533 143.188 103.062 143.188 103.612V140.998C143.188 141.549 143.407 142.077 143.797 142.467C144.186 142.857 144.714 143.075 145.265 143.075Z" fill="#F5F8FC"/>
</g>
<defs>
<clipPath id="clip0_2510_13630">
<rect width="216" height="216" fill="white" transform="translate(52 60)"/>
</clipPath>
</defs>
</svg>
