<svg xmlns="http://www.w3.org/2000/svg" version="1.0" viewBox="0 0 528 528" width="256" height="256" preserveAspectRatio="xMidYMid meet"><path d="M235.8 8.5c-.1.1-3 .6-6.3.9-13.9 1.3-30.2 4.4-42 7.8-7.8 2.2-22.9 7.3-26 8.8-1.1.5-4.2 1.9-7 3-7.1 3.1-19.8 9.6-28 14.3S103.7 58 103.2 59.2c-.2.4-.8.8-1.3.8s-1.7.8-2.7 1.7c-1 1-3.6 3.1-5.8 4.8-10.4 8-31.1 29.3-39 40-1.6 2.2-3.2 4.2-3.5 4.5s-2.6 3.4-5 7-4.6 6.7-4.9 7-1.1 1.6-1.9 3-3.6 6.3-6.3 10.9c-4.3 7.4-6 10.9-11.3 22.6-5.4 11.8-9.7 24.4-13.5 39.2-3.6 14-3.2 12.1-5.5 27.3-2.7 17-2.7 58.1 0 72 .2 1 .7 4 1 6.7.7 4.3 3.5 17.7 4.9 22.8 2.2 8.1 3 10.9 4.8 16 5.8 17.3 15.4 37.9 24.2 51.9 3.1 4.8 5.6 9.2 5.6 9.6 0 .5.3 1 .8 1.2.4.1 2.9 3.4 5.6 7.2s5.7 7.7 6.5 8.6c.9.9 3.2 3.6 5.1 6 8.3 10.4 28.9 29.8 41.2 38.9 3.5 2.5 6.5 4.9 6.6 5.3.2.5.8.8 1.2.8.5 0 3.7 1.9 7.2 4.2 10.7 7.2 20.2 12.3 33.3 18 5 2.1 9.9 4.3 11 4.8 3.8 1.7 16.7 6 25.3 8.4 9.1 2.6 11.7 3.2 19.2 4.6 2.5.5 6.1 1.1 8 1.5 3.9.7 5.5 1 15 2.2 8 1 45.3 1 53.5 0 11-1.3 14-1.7 19.5-2.8 8.3-1.5 8.9-1.7 17.5-4 10-2.6 9.7-2.5 11.5-3.1.8-.3 5.3-1.8 10-3.4 4.7-1.5 9.6-3.4 11-4.1s2.9-1.3 3.3-1.3c1.9 0 28.9-14.1 36.8-19.2 9.1-5.9 26.8-18.9 31-22.8 9.8-9.1 20.5-20 26.1-26.5 3.9-4.4 7.8-9 8.9-10.1 1-1.2 1.9-2.6 1.9-3.2s.4-1.2.8-1.4c1.1-.4 11.1-14.9 14.8-21.3 1.5-2.8 3.3-5.3 3.9-5.7.5-.4.7-.8.2-.8-.4 0 .3-1.7 1.6-3.7 2.4-3.9 10.7-21 10.7-22.1 0-.4.6-1.9 1.4-3.4 2.1-3.9 7.4-19.9 10.2-30.8 3.5-13.3 5.1-21.9 7-37.5 2.4-20.1 1.5-48.4-2.1-69.5-.3-1.9-.8-4.4-.9-5.5-.2-1.1-.9-4.3-1.6-7-.6-2.8-1.4-6.1-1.6-7.4-.9-4.8-9.3-29-13-37.7-4.5-10.6-12.4-25.8-17-33.2-1.9-2.9-3.4-5.5-3.4-5.8s-1.3-2.2-2.8-4.2c-1.6-2-4.8-6.4-7.2-9.7-17.4-23.7-44.1-48.6-68.8-64.1-11.5-7.2-32.7-18.4-34.7-18.4-.3 0-2.4-.9-4.8-1.9-9.1-4.1-21.3-8.2-31.2-10.7-6.8-1.7-14.7-3.4-17.5-3.9-1.9-.3-4.2-.8-5-1s-3.7-.7-6.5-1c-2.7-.4-6.8-.9-9-1.2-4.5-.5-47.1-1.3-47.7-.8M278 57.4c8.4 1.1 17.2 2.4 20 3.1 1.4.3 3.7.8 5.3 1.1 2.2.4 9 2.4 20.2 5.8.6.2 1.9.7 3 1.1s4.9 1.9 8.5 3.3c15.3 5.9 36.2 18.2 50.4 29.6 6.7 5.4 20.6 18.1 20.6 18.9 0 .2-33.9.4-75.2.4-80.5 0-84.5.1-100.3 3.8-17 3.9-35.3 12-49.4 21.8-8.7 6.2-25.9 22.8-32.3 31.2-4.2 5.6-14.8 22.7-14.8 23.9 0 .3-1.1 2.9-2.4 5.8-3.4 7.6-6.2 16.2-8.1 25-1.7 7.7-1.7 7.8-4.9 7.9-2.7 0-15.2-.1-18.1-.2H91c-14.8.1-20.6.1-22.2 0-.7 0-4 0-7.3.1s-7.3.2-8.9.1l-2.9-.1.7-5.3c.8-6.6 1.3-9.6 3.2-17.7.9-3.6 1.7-7.2 1.9-8s.4-1.5.5-1.5.3-.7.5-1.5c.9-4.8 7.4-21.9 11.7-30.9C80.7 149 97.9 126.3 120 107c3.4-3 6.9-5.9 7.7-6.4.9-.4 2.3-1.6 3.3-2.5 9.2-8.2 34.8-22.4 51-28.3 3-1.1 6.2-2.2 7-2.5s2-.7 2.5-.9c.6-.1 4.8-1.3 9.5-2.7 9.3-2.7 24.6-5.5 34.9-6.4 3.6-.3 6.7-.6 6.8-.7.6-.5 30.4.2 35.3.8m168.1 122.4c8.1 18.6 11.9 31.3 14.5 47.7.3 2.2.9 5.7 1.4 7.8.5 2.2.4 3.9-.2 4.3-.5.3-4 .5-7.6.4-3.7-.1-7.3-.1-7.9-.1-9.6.4-28.4.2-29.2-.3-.6-.4-1.1-.4-1.1.1 0 .4-2.1.7-4.7.5-2.7-.1-6.8-.2-9.3-.2-3.6-.1-27.9 0-37.5 0-1.1 0-4.5-.1-7.5-.1-3-.1-6.1-.1-6.7 0-7.4.4-28.4.2-29.2-.3-.6-.4-1.1-.4-1.1.1 0 .4-2.1.7-4.7.5-5.3-.2-7.1-.3-29.3-.2-8.5 0-16.2 0-17-.1-1.6 0-25.4 0-28.2.1-3.5 0-10.8 0-12-.1H219c-12.6.1-20.1.1-22.2 0-.7 0-6.3.1-12.4.2-6.2.1-11.6-.1-12.2-.5-1.9-1.1 5.1-18.5 11.2-27.6 7.9-11.8 18.8-22.2 31.1-29.7 8.5-5.3 23.5-10.6 33-11.9 2.8-.3 5.2-.8 5.4-1s42.7-.4 94.5-.4h94.1zM121.9 290c.5.8 1.2 3.3 1.6 5.5.5 2.2.9 4.6 1.1 5.2.9 4.8 5.3 16.4 9.3 24.9 9.3 19.5 22.8 37 38 49.2 2.5 2 4.8 4 5.1 4.3 1 1.3 14.9 9.9 15.9 9.9.6 0 1.1.3 1.1.8 0 .4 1.9 1.6 4.3 2.6 12.1 5.4 19.6 8.4 22.7 9.2 4.2.9 4.1.9 6 1.6 1.7.7 10.4 2.4 16.5 3.4 2.2.4 39.1.8 82 .9 42.9.2 78.7.4 79.5.5 2.1.1-12.6 13.8-24.4 22.7C334.9 465 276.9 478.9 220 469c-7.9-1.4-7.8-1.4-20-4.4-4.5-1.1-18.6-6-19.5-6.8-.5-.4-1.5-.8-2.2-.8-1.4 0-25.9-11.7-27.8-13.2-.5-.5-5-3.5-10-6.8-4.9-3.2-10-6.8-11.2-7.9-1.2-1.2-2.5-2.1-2.8-2.1-1.6 0-24-22-30-29.5-2.2-2.8-4.2-5.2-4.6-5.5-.3-.3-2.1-2.8-4-5.5-1.8-2.8-3.7-5.2-4-5.5s-2.6-3.9-5.1-8c-6.3-10.5-12.9-24-16.3-33-.1-.3-.7-1.8-1.4-3.4-2.2-5.3-6.8-21.9-8.5-30.6-1-4.7-2.1-10.2-2.5-12.2-.5-2-.5-4 0-4.5s16.7-.9 36-.8c30.1 0 35.2.2 35.8 1.5m340.4-.2c-.2.6-.5 3.1-.8 5.4-.4 4.3-.9 6.9-2.2 12.3-.4 1.6-.7 3.4-.8 4-.1.5-.3 1.2-.4 1.5s-.4 1.6-.7 3c-1.2 7.1-8.3 26.7-13.3 37l-3.2 6.5-93.2-.1c-51.3-.1-95-.4-97.2-.7-13.9-2.2-27.4-7.2-38.7-14.4-13.8-8.9-28.3-25.5-34.7-39.8-2.9-6.4-6-15.2-5.6-15.7.2-.2 65.8-.3 145.7-.3 111.6.1 145.2.3 145.1 1.3"/></svg>