<svg xmlns="http://www.w3.org/2000/svg" fill="none" class="size-6 opacity-100 group-hover:opacity-75" viewBox="0 0 24 24" width="256" height="256" preserveAspectRatio="xMidYMid meet"><path fill="currentColor" fill-rule="evenodd" d="M24 12c0-6.627-5.373-12-12-12S0 5.373 0 12s5.373 12 12 12 12-5.373 12-12m-10.287 8.981c0 .814-.668 1.476-1.617 1.495h-.113C6.205 22.466 1.523 17.78 1.523 12 1.524 6.214 6.215 1.524 12 1.524h.094c1.07.02 1.619.681 1.619 1.495 0 .829-.733 1.438-1.508 1.438-.777 0-.815 0-1.557.06-.743.06-1.511.669-1.511 1.495 0 .83.675 1.5 1.51 1.5h6.588c.833 0 1.508.67 1.508 1.495s-.675 1.495-1.508 1.495H7.089c-.836 0-1.51.672-1.51 1.5 0 .826.674 1.496 1.51 1.496h5.115c.834 0 1.509.669 1.509 1.497 0 .826-.675 1.496-1.508 1.496h-1.557c-.836 0-1.511.669-1.511 1.495 0 .828.692 1.433 1.51 1.495l.179.013c.288.022.445.034.603.041.19.008.38.008.8.008.833 0 1.484.612 1.484 1.438" clip-rule="evenodd"/></svg>